<svg version="1" xmlns="http://www.w3.org/2000/svg" width="5514.667" height="5514.667" viewBox="0 0 4136.000000 4136.000000"><path d="M343.6 1718.7c-.3 1-.8 3.4-1.1 5.3-.3 1.9-1.1 5.5-1.6 8-.6 2.5-1.2 5.4-1.5 6.5-.2 1.1-.9 4.4-1.5 7.3-.6 2.9-1.2 6.5-1.4 8-.3 1.5-.7 3.8-1 5.2-.3 1.4-.7 3.8-1 5.5-.3 1.6-.8 4.3-1.2 6-.3 1.6-.7 4.1-.8 5.5-.2 1.4-.6 4.3-1 6.5-2.5 15.4-4.3 28-5 36.5-.1 1.4-.3 2.5-.5 2.5-.1 0-.3 1.6-.5 3.5-.1 1.9-.5 6-.9 9-.3 3-.8 8.2-1.1 11.5-.3 3.3-.8 7.6-1 9.5-.3 1.9-.7 7.3-1 12-1 17-1.5 23.3-1.9 23.8-.3.2-.1 1.5.4 2.8.5 1.3.6 2.4.2 2.4-.9 0-1.1 6.8-1.2 48.5-.1 35.6.6 58.7 2.4 80.5.3 3.6.8 9.9 1.2 14 .9 11.8 1.1 14.1 1.9 20 .4 3 .9 6.8 1 8.5.5 5.3 1.6 13.9 2 16.5.4 3 1.2 8.9 2 14.7.3 2.3.8 5.7 1.1 7.5.3 1.8.7 4.4.9 5.8.3 2.4 1.3 8.3 2 11.9.1.9.6 3.6 1 6.1.9 5.6 1.3 7.8 2 11 .3 1.4.7 3.6 1 5 .3 1.4.7 3.6 1 5 .7 3.2 1.4 6.7 2 10.3.5 2.4 2 9 5.1 22.2.3 1.1.7 2.9.9 4 .2 1.1.6 3.1 1 4.5s.9 3.6 1.2 5l.5 2.5h29.6c28.8-.1 29.7-.2 29.5-2-.2-2.3-.6-4.2-2.3-10.5-1.4-5.3-1-3.5-5.4-23-1.9-8.5-3.7-16.7-4-18.3-.3-1.5-.7-3.5-1-4.5-.3-.9-.7-3.5-1.1-5.7-.3-2.2-.8-4.7-1-5.5-.3-.8-.7-2.9-.9-4.5-.3-2.8-.8-5.9-2.2-13-.3-1.7-.7-4.2-1-5.8-.2-1.5-.6-3.9-.8-5.5-.3-1.5-.7-3.8-1-5.2-.2-1.4-.7-4.8-1-7.5-.3-2.8-.8-6.1-1-7.5-.8-4.5-1.8-13.4-2.1-17.5-.2-2.2-.6-5.4-.8-7-1-5.6-3.3-31.5-4.2-46.5-2.4-38.1-2.3-100.6 0-125.5.2-2.2.6-8.3 1-13.5.3-5.2.7-11.1 1-13 .2-1.9.6-6.2.9-9.5 1-9.9 1.7-16.8 2.2-20.5.3-1.9.7-5.1 1-7 .5-3.9.7-5.9 2.4-17.5 1.7-11.8 1.9-13.5 3-19 .5-2.8 1.2-6.8 1.5-9 1.2-7.6 2.2-13 2.5-13 .1 0 .3-.9.4-2 .6-4 1.6-9.2 3.1-16.5.9-4.1 1.8-8.3 2-9.3.2-1 .6-2.6.9-3.5.3-.9.8-3.1 1-4.7.3-1.7 1-4.5 1.5-6.3l1-3.2H374c-27.6 0-29.9.1-30.4 1.7zM2563 1719.3c0 1.3.3 2.7.7 3.1.4.3.8 1.2.9 1.9.6 3.9 1.7 9.4 3.1 15.2.4 1.6.7 3.4.8 4 .1.5.3 1.2.4 1.5.2.3.4 1.4.5 2.5.2 1.1.8 4.5 1.4 7.5.6 3 1.4 7.1 1.7 9 .3 1.9.8 4.2 1.1 5.1.2 1 .7 3.2 1 5 .2 1.9.6 4.3.8 5.4.2 1.1.7 4 1 6.5.3 2.5.8 5.6 1.1 7 .3 1.4.8 4.1 1 6 1.1 6.9 1.7 11.5 2.1 13.5.2 1.1.6 4.2.9 7 .3 2.7.8 6.3 1 8 .9 5.6 3.5 33.1 5 53 1.9 25.3 2.5 86.5 1.1 112-.4 7.1-.9 16.4-1.1 20.5-.2 4.1-.6 10.4-1 14-.3 3.6-.8 9.2-1.1 12.5-.3 3.3-.7 8-1 10.5-.3 2.5-.8 6.1-1 8-.6 6.6-1.4 13.5-1.8 16-.3 1.4-.7 4.7-1.1 7.5-.3 2.7-.8 5.9-1 7-.2 1.1-.7 4-1 6.5-.6 4.8-1.1 8.4-2.1 14-.8 4-1 5.2-1.7 10-.3 2-1.3 7.6-2.2 12.5-1 5-1.9 10.1-2.1 11.5-.3 1.4-.9 3.8-1.4 5.5-.5 1.6-1.2 4.6-1.5 6.5-.3 1.9-1 5.6-1.6 8.1-.6 2.6-1.2 5.5-1.4 6.5-.2 1.1-.4 1.9-.5 1.9-.1 0-.3.7-.5 1.5-.1.8-1.4 6.2-2.8 12s-2.7 11.4-2.9 12.4c-.3 1.9.6 2 28.6 2 17.9.1 29.4-.3 30.1-.9.7-.6 1.8-3.5 2.4-6.5.6-3 1.3-6.4 1.6-7.5 1-4.1 4.5-20.1 4.9-22.5.3-1.4 1.8-9.3 3.5-17.5 1.6-8.3 3.2-17 3.6-19.5.3-2.5.8-5.2 1.1-6.1.2-.9.7-3.4.9-5.5.2-2.2.7-5 1-6.4.3-1.4.8-4.5 1-7 .3-2.5.7-5.6 1-7 .2-1.4.7-4.8 1.1-7.5.3-2.8.7-6.1 1-7.5.2-1.4.7-5 .9-8 .3-3 .7-7.3 1-9.5 1.2-9.8 2.5-23.8 3-31.5.3-3.6.7-9.9 1-14 2.5-35.7 2.5-104.8 0-136.5-.2-2.8-.7-8.8-1-13.5-.3-4.7-.8-10.1-1-12-.2-1.9-.6-6.2-.9-9.5-.7-8.5-2.3-22-3.1-26.4-.2-1.4-.7-5.1-.9-8.1-.3-3-.8-6.6-1.1-8-.2-1.4-.7-4.4-1-6.5-.2-2.2-.7-5.7-1-7.7-.5-3.8-7.1-40.5-7.9-44.3-.2-1.1-1.1-5.4-2-9.5-.8-4.1-2-9-2.5-10.8-.5-1.8-.9-3.6-.8-4 .1-.4-13.2-.8-29.5-1l-29.8-.2v2.3zM2805.1 1722.3c-.9 1.1-1.2 17.1-1 41.2v368c0 .5-.1 10.6-.3 22.3-.2 11.6-.1 21.3.2 21.3.3.1 11.9.2 25.8.3l25.2.1v-5.5c.1-3 .1-86.2.1-184.8 0-98.5.4-179.2.7-179.2.4.1 4.1 4.4 8.2 9.7 4.1 5.2 8.2 10.3 9 11.3.8 1 6.7 8.2 13 16.1 6.3 7.8 12.2 15 13.1 15.9.8.9 2.2 2.6 3 3.7.8 1.2 3.1 4.1 5.1 6.5 3.1 3.6 29 35.5 39.2 48.2 1.7 2.2 3.8 4.6 4.6 5.5.8.9 2.8 3.5 4.4 5.6 1.7 2.2 3.3 4.2 3.6 4.5.3.3 6.4 7.7 13.5 16.5s13.2 16.2 13.5 16.5c.3.3 1.9 2.3 3.5 4.5 1.7 2.2 3.3 4.2 3.6 4.5.3.3 4.7 5.7 9.8 12 5.1 6.3 10 12.4 10.9 13.5 1.6 1.9 12.8 15.7 19.4 23.8 1.7 2.1 4.1 5 5.4 6.5 1.3 1.5 5.1 6.3 8.6 10.7 3.4 4.4 6.5 8.2 6.8 8.5.3.3 3.5 4.1 7 8.5 3.6 4.4 6.8 8.1 7.2 8.3.5.2.8 1 .8 1.8s.4 1.4.8 1.4 2.6 2.3 4.7 5.2c2.2 2.8 4.4 5.6 5 6.2.5.6 2.1 2.5 3.5 4.2 1.4 1.7 3.9 4.8 5.7 7 1.7 2.1 10.3 12.7 19 23.4s18.2 22.4 21.1 26c3 3.6 5.9 7.2 6.5 8 6.1 7.7 18.3 22.8 19.4 24 1.1 1.2 5.5 1.5 26.8 1.5 16.5 0 25.5-.3 25.6-1 .1-.5.2-102.4.3-226.2.1-199.4-.1-225.4-1.4-225.9-.8-.4-1.9-.6-2.5-.5-.5.1-5.6.2-11.2.1-5.7 0-11.1-.1-12-.1h-12.9c-8.3 0-11.3.3-11.5 1.3-.3.7-.4 84.2-.3 185.6 0 101.3-.2 183.9-.6 183.5-.3-.4-2.9-3.5-5.6-6.8-2.7-3.3-5.3-6.5-5.9-7.1-.5-.6-2.1-2.6-3.5-4.4-1.4-1.9-3.8-5-5.5-6.9-3.4-4.1-4.6-5.5-6-7.3-4.7-5.9-14-17.4-14.5-17.8-.3-.3-2.7-3.2-5.2-6.5s-5.4-7-6.4-8.2c-2.2-2.5-2.1-2.3-15.4-18.8-5.7-7.2-11-13.6-11.7-14.3-.7-.8-2.6-3-4.1-5-1.5-2.1-2.9-3.9-3.3-4.2-.3-.3-12.9-15.8-27.9-34.5-15.1-18.7-28.3-34.9-29.3-36-1-1.1-3.7-4.5-6-7.5s-5.7-7.1-7.4-9c-1.8-1.9-3.3-3.8-3.3-4.2 0-.4-.8-1.5-1.8-2.5s-3.6-4.1-5.8-6.8c-2.1-2.8-4.7-5.7-5.6-6.6-1-.9-1.8-2-1.8-2.5s-1.3-2.3-2.8-3.9c-1.5-1.7-6.6-7.7-11.2-13.5s-8.9-11-9.5-11.7c-.5-.7-1.5-1.8-2-2.5-.6-.7-4.3-5.4-8.3-10.3-4.1-5-8.6-10.6-10.2-12.5-1.5-1.9-3.6-4.5-4.7-5.7-2.3-2.7-3.1-3.7-12.8-15.8-4.3-5.5-8.4-10.5-9-11.2-.5-.7-1.4-1.8-2-2.5-4.1-5.2-10.1-12.4-10.7-12.6-.5-.2-.8-1-.8-1.8s-.4-1.4-.8-1.4-2.6-2.3-4.7-5.2c-2.2-2.8-4.4-5.6-5-6.2-.6-.6-2.8-3.4-5-6.1-2.2-2.8-4.2-5.2-4.5-5.5-.3-.3-2.1-2.5-4-5-3.3-4.2-4.2-5.3-8.7-10.6-1-1.2-3.1-3.8-4.7-5.8l-2.9-3.7h-8.1c-4.5.1-8.9.1-9.8 0-1 0-6.5.1-12.3.1-5.7.1-10.8-.1-11.3-.4-.4-.2-1.4-.1-2.2.4-.8.5-2.1.5-3.1 0-1.1-.7-2-.5-2.8.3zM1.4 1722.9c-.2.2-.4 102.2-.4 226.5v226.1h117.5c64.6 0 117.6-.2 117.6-.5.3-1.2.5-45.6.2-46.5-.2-.7-30.4-1-91.9-1-60 0-91.8-.3-92.2-1-.4-.6-.7-91.2-.8-201.5-.1-110.3-.2-201-.3-201.5-.1-1-48.7-1.5-49.7-.6zM586 1729c-.4 46.1 0 445.1.3 445.7.3.5 11.7.8 25.4.8h24.8l.3-106.6.2-106.5 72.8.1c40 0 73.2-.1 73.7-.2.6-.2 1-9 1-24.1v-23.7H637v-71.8c0-67.6.1-71.7 1.8-71.8.9 0 37.8-.1 82-.1 73-.1 80.2-.2 80.3-1.7.7-10.6.2-46.1-.6-46.2-.5 0-49-.1-107.8-.2l-106.7-.2v6.5zM932.5 1722.8l-2.1.3.1 226.2v226.2H1147v-48h-82.1c-45.1 0-82.4-.2-82.8-.5-1.1-.8-.8-163.9.4-164.3.5-.2 32.1-.3 70-.3 38 .1 69.7 0 70.7-.2 1.5-.4 1.6-2.8 1.6-24.1v-23.8l-68.7-.1c-37.7 0-70-.1-71.6-.1l-3-.1v-71.5c0-47.9.3-71.5 1-71.6.5 0 36.6-.1 80-.1l79.1-.1V1723l-2.5-.1c-7.1-.2-204.9-.4-206.6-.1zM1441.8 1724c-.6 2.8-.2 449.6.4 450.5.4.6 10.5 1 25.5 1h24.8l.2-84c.1-46.2.2-87.4.2-91.5l.1-7.6 24.3.1c13.3.1 26.7.5 29.7 1 6.6.9 16.6 4 19.7 6 1.2.8 2.7 1.5 3.2 1.5.9 0 10.5 5.8 13.6 8.1 15.3 11.9 29.8 29.3 42.2 50.9 3 5.2 5.8 10.2 6.3 11 3.2 5.4 10.8 19.9 11.4 21.7.4 1.3 1.2 2.3 1.8 2.3.6 0 .9.3.5.6-.3.3.5 2.4 1.9 4.5 1.3 2.1 2.1 3.9 1.8 3.9-.4 0-.2.6.4 1.2 1.9 2.4 5.2 8.9 5.2 10.2 0 .8.4 1.6.8 1.8.4.1 3.4 5.5 6.6 11.8 10.8 21.3 23.1 41.7 27.3 45.2 1.2.9 8.6 1.3 30.8 1.3l29.3.1-2.7-3.6c-1.4-1.9-3-4-3.6-4.6-.5-.6-2.1-3-3.5-5.3s-3.5-5.4-4.7-6.9c-1.3-1.5-2.3-3.3-2.3-4 0-.6-.3-1.2-.8-1.2-.4 0-1.2-.9-1.7-1.9-.6-1.1-3.3-6.2-6.1-11.3-2.9-5.1-10.2-19.2-16.4-31.3-24.1-47.1-26-50.5-35.2-65.8-14.2-23.5-25.5-38.6-37.6-50.1-9.2-8.8-12-11.2-14.4-12.8-1.9-1.3-1.5-1.6 5.8-5.3 9.6-4.8 16.2-8.9 23.4-14.6 6.5-5 20-18.5 20-19.9 0-.6.4-1 .8-1 1.3 0 11.1-15.4 13.4-21.2 1.2-2.9 2.5-5.7 3-6.3.4-.5.8-1.9.8-3 0-1.2.3-2.5.8-2.9.4-.4.8-1.2.8-1.7.1-.5.2-1 .4-1.2.1-.1.3-1 .5-2.1.2-1 .9-4 1.5-6.6 2.4-10.1 3.4-20.3 3.4-37 0-15.6-.8-24.8-3-34-.8-3.6-1.6-7.2-1.8-8-.1-.8-1.1-4-2.1-7-1.1-3-1.8-5.8-1.7-6.3.1-.4-.2-.7-.8-.7-.5 0-1-.6-1-1.4 0-1.6-5-11.3-8.2-15.8-1-1.4-1.8-2.9-1.8-3.2 0-1-4.9-6.5-13-14.7-7.6-7.7-14-12.6-22.1-17.1-7.6-4.3-8.2-4.6-13.4-6.8-2.7-1.2-5.8-2.6-6.7-3.1-1-.5-2.6-.9-3.6-.9s-2.2-.3-2.6-.8c-.4-.4-1.2-.8-1.7-.8-.5-.1-1-.2-1.1-.4-.2-.1-1-.3-1.8-.5-.8-.1-4.4-1.1-8-2-3.6-.9-7.4-1.9-8.5-2-1.1-.2-4.7-.8-8-1.4-11-1.8-15.2-2.3-32.5-3.7-4.1-.3-30.5-.7-58.7-.8-44.8-.1-51.2.1-51.5 1.4zm104.7 47.5c11.8.7 15.8 1.1 19.1 1.9 1.2.2 3.9.7 6 1 3.9.6 13.6 3.1 16.4 4.3.8.3 2 .7 2.5.9 7.2 2.1 16.2 6.6 22.6 11.3 5.1 3.7 11.9 9.9 11.9 10.9 0 .5.9 1.7 1.9 2.6 1.7 1.5 5.9 9.4 9.2 17.1 1.2 2.9 2.9 9.9 3.7 15.3.8 6 .7 32.1-.3 38.7-.9 6.9-1.3 9-1.5 9.2-.2.2-.4.7-.5 1.3-.1.5-.3 1.1-.4 1.2-.2.2-.4 1.3-.6 2.4-.3 1.2-.9 3.4-1.5 5s-1.1 3-1.1 3.1c.3 1.7-11.7 20.3-13 20.3-.4 0-1.1.9-1.4 2-.3 1.1-1 2-1.5 2s-2.3 1.3-3.9 2.9c-1.7 1.6-5.9 4.6-9.4 6.5-6.4 3.6-17.7 8-17.7 6.9 0-.3-.6-.1-1.3.5-.7.6-2.8 1.4-4.7 1.7-1.9.3-5.7 1-8.5 1.5-2.7.5-8.4 1.2-12.5 1.6-12 .9-66.1 1-66.7.1-.4-.6-.7-155.7-.4-170.7l.1-2.5 21.2.1c11.7.1 26.3.5 32.3.9zM1872.8 1722.8c-1.6.2-2.8.9-2.8 1.5-.4 12.2 0 449.9.3 450.4s49 .8 108.4.8h107.8v-48h-165l-.3-82.6-.2-82.5 70.2.1c38.7 0 71-.2 71.8-.6 1.3-.6 1.5-4.2 1.4-24.1v-23.3H1921V1771l3.3-.1c1.7 0 37.7-.1 80-.1 55.7-.1 76.7-.4 76.7-1.2.4-7.9-.1-46-.5-46.4-.6-.6-202.9-.9-207.7-.4zM2222.9 1723l-2.5.5.2 225c.1 123.7.2 225.5.3 226 .1.8 44.1 1.4 49.6.6.7-.1 1-36 1-106.4v-106.3h147l.3-24 .2-24.1-72.2-.1c-39.8 0-73-.1-73.8-.1-1.3-.1-1.5-8.6-1.4-71.4.1-39.1.2-71.4.3-71.7 0-.3 37-.5 82-.4l81.9.1.1-23.8c0-18.1-.3-23.9-1.2-24-5.2-.4-209.9-.3-211.8.1zM3395.2 1723.2c-.4.4-.6 102.3-.4 226.5l.2 225.8h216.5v-48H3446v-165.1h71.1c40.5.1 71.3-.3 71.6-.8.5-.7.7-27.5.4-43.7l-.1-3.6-70.2-.1c-38.7 0-70.9-.1-71.5-.1-1-.1-1.3-15.1-1.3-71.6V1771l2.3-.1c1.2 0 37.2-.1 80-.1 56.6 0 77.7-.4 77.7-1.2.4-10.4.1-45.8-.4-46.3-.9-.9-209.5-1-210.4-.1zM3746.6 1723c-1 .4-1.2 44-1.2 226.5l.1 226 76.5-.1c69.5 0 92.9-.5 103-2 3.5-.5 17.8-2.9 23.5-3.9 1.7-.3 3.7-.8 4.5-1.1.8-.3 2.6-.8 4-1 4.2-.8 21.1-6 28.5-8.9 3.9-1.4 8.5-3.1 10.3-3.7 1.7-.6 3.2-1.5 3.2-2 0-.4.7-.8 1.5-.8s2.4-.5 3.5-1c1.1-.6 2.8-1.4 3.8-1.8 4.9-2.4 18.2-9.8 22-12.3 2.4-1.6 4.5-2.9 4.8-2.9.6 0 6.2-4 8.8-6.3 1.1-.9 2.3-1.7 2.7-1.7.4 0 1.4-.6 2.1-1.3.7-.6 3.6-3 6.3-5.2 7.9-6.3 24.1-22.3 30.3-30 3.1-3.8 5.9-7.2 6.2-7.5 4.9-4.6 28-44.6 28-48.5 0-.4.6-2.1 1.4-3.8 1.4-3.3 2.8-6.8 3.1-7.7 0-.3 1-3.7 2.2-7.5 3.7-12.1 5.5-19.8 6.9-29.9.3-2.1.9-5.9 1.4-8.5 1-4.9.7-56.1-.3-59.8-.3-1.1-.9-4.3-1.3-7-.5-4-3.5-18.1-4.9-23.3-.2-.8-1.4-4.7-2.6-8.5-1.3-3.9-2.3-7.2-2.3-7.5-.2-.7-2.5-6.6-4.9-12-3.1-7.3-10.8-22.3-12.8-25.2-1.1-1.4-1.9-2.9-1.9-3.2 0-1.7-16.4-23.8-22.9-31-6-6.6-17.4-17.6-22.1-21.5-2.5-2-5.4-4.4-6.5-5.4-4.5-4.2-24.7-17-35.5-22.5-12.5-6.4-34.9-15.5-37-15.1-.3.1-2.1-.5-4-1.3-2.8-1.2-9.3-2.8-12-3-.3 0-2.5-.6-5-1.3-2.5-.7-5.2-1.3-6-1.4-.8 0-5.8-.7-11-1.6-5.2-.8-13.8-1.7-19-2.1-11-.8-173.4-1.2-175.4-.4zm169.4 48.4c10.5.7 16.7 1.3 20 2.1 1.4.3 4.1.8 6 1.1 6.4 1 24.2 6.3 31 9.1 11.4 4.9 28.8 14.3 36.8 20 9.4 6.7 24.6 20.9 31.7 29.7 8.6 10.4 20.1 29.7 24.7 41.1.9 2.2 2.5 6.2 3.6 9 3.7 9.2 8.3 28.4 9.9 41.2.7 6.2 1 45.3.3 45.3-.3 0-.7 1.2-.8 2.7-.1 1.6-.6 5-1.2 7.8-.5 2.7-1.2 6.4-1.5 8.1-.2 1.6-1.4 5.9-2.6 9.5-1.1 3.5-2.2 7.1-2.4 7.9-.2.8-.4 1.6-.5 1.7-.2.2-.3.6-.5 1-1.4 5.2-14.7 31.7-16.6 33.3-.3.3-1.2 1.6-1.9 2.9-4.5 8.6-24.4 30.8-35.5 39.6-2.7 2.2-5.1 4.3-5.3 4.7-.2.5-.8.8-1.3.8s-3.2 1.8-6.1 4c-2.9 2.2-5.9 4-6.5 4-.7 0-1.3.4-1.3 1 0 .5-.5 1-1 1-.6 0-4.3 1.8-8.3 4.1-4 2.3-7.6 4.2-8.2 4.3-.5.2-2.8 1-5 2-4.2 1.9-15.3 6.1-17 6.6-.5.1-2 .6-3.3 1.1-1.3.5-3 .9-3.8.9-.9 0-2.3.4-3.3.9-1 .6-3.1 1.2-4.7 1.5-1.6.2-2.9.5-2.9.6 0 .1-.9.3-2 .5-1.1.1-3.3.5-5 .9-1.6.4-4.3.9-6 1.1-1.6.2-4.6.7-6.5.9-1.9.3-6.6.9-10.5 1.2-8.1.8-110.3 1.2-111.4.4-.3-.3-.7-80.4-.6-178v-177.5l2.4-.5c3.3-.7 106.4-.3 117.1.4zM623.5 2290.1c-7 1.6-16.9 5.1-18.6 6.5-.8.8-2 1.4-2.5 1.4s-2.2 1.1-3.8 2.5c-1.6 1.4-3.2 2.5-3.6 2.5-2.5 0-15.6 15.5-18.9 22.5-1.3 2.7-2.8 5.8-3.3 6.7-.4 1-1.1 3.4-1.4 5.5-.3 2-.9 4.6-1.4 5.7-1.1 3.1-.4 23.6 1 27.1.6 1.6 1.2 3.2 1.2 3.5.6 5.5 8.9 19.8 15.1 26.2 7.8 8 9.6 9.3 18.2 13.4 10.1 4.9 18.6 6.4 34.6 6.3 17.4-.1 27.6-2.3 40.9-8.8l3.5-1.7.3-10.2c.1-6.5-.2-10.2-.8-10.2-.6 0-2.7 1-4.8 2.3-7.3 4.6-17.4 8.3-27.7 10.3-5.1 1-18.8 1.1-23 .1-2.2-.5-4.9-1-6-1.3-4.6-.9-14.6-6.7-19.2-11.2-9.4-9.1-13.3-18.4-13.8-32.4-.6-14.7 4.3-26.9 14.6-36.3 10.1-9.3 20.7-13 36.4-12.9 12.5.2 24.1 3.1 36.5 9.4 3.3 1.7 6.1 3 6.2 3 .3 0 .2-18.6-.1-20.2-.1-.6-9.7-4.5-13.1-5.3-.8-.2-3.1-.9-5-1.5s-4.5-1.3-5.7-1.6c-1.3-.2-3.5-.7-5-1-4.7-1.1-26.5-1.2-30.8-.3zM1226 2291.2c-4.1 1-7.9 2-8.5 2.2-.9.2-3.6 1.5-9.7 4.8-3.3 1.8-10.2 7.3-13.5 10.8-11.2 11.8-17.1 25-17.8 39.9-.2 3.6-.5 7.1-.6 7.6-.4 1.4 1 11.2 2.3 16 .6 2.2 1.1 4.4 1.2 5 .7 3.7 7.7 15.2 12.7 20.8 9.8 10.8 22.7 18.2 36.4 20.7 6 1.2 28.6.9 33.4-.3 9.3-2.4 19.9-7 21.3-9.1.4-.6.8-.7.8-.3 0 2 15.5-12.9 19-18.2 1.6-2.5 3.4-5.1 4-5.8.5-.7 1.2-2 1.3-3 .2-1 .9-3.1 1.5-4.6 3.7-8.9 5.1-33.3 2.3-38.5-.6-1.2-1-2.5-.9-2.9.4-1.2-4.6-13.3-5.4-13.3-.5 0-.8-.5-.8-1.1 0-1.8-8.5-12.2-13.3-16.2-10.5-8.7-16.5-11.7-30.5-15.1-8.3-2.1-26.4-1.8-35.2.6zm31 17.3c9.2 1.7 21.1 9.4 27.5 18 7 9.3 9 15.9 8.9 29.5-.1 8.7-1.5 14.3-5.5 22.3-2.4 4.6-12.5 15.7-14.4 15.7-.7 0-1.8.7-2.5 1.5-1.4 1.7-10.6 5.3-15.8 6.1-10.6 1.8-24.1.4-32.1-3.3-8.7-4-17.7-12.8-22.1-21.3-2.6-5.2-5-14-5-18.5v-4c0-1.1 0-2.9.1-4 0-3.7 3-13.8 5.5-18.7 2.3-4.5 9-12.2 13.9-15.8 9.6-7.1 26.4-10.2 41.5-7.5zM1903.5 2289.7c-5.2 1-14.4 3.6-17.5 5-13.5 6.1-25.9 18-32.7 31.1-2.4 4.5-4.1 8.2-3.8 8.2.2 0 0 1.1-.5 2.5-2.2 5.7-3 18.9-1.8 27.4 1.1 7.8 1.3 8.9 3.7 15.2 6.3 16.7 21 31.1 37.7 37 8.5 3.1 11.2 3.4 27.9 3.4 16.4 0 20-.4 29-3.3 15.4-5.1 16.7-6.1 16.6-12.8-.1-2.7-.1-5.7-.1-6.7 0-3.5 0-5.2-.1-6.9 0-1.4-.7-1.3-4.7 1-20.2 11.6-39.2 14.5-59.7 8.9-6.4-1.7-18.5-10.7-22.4-16.5-3.7-5.6-6-10.1-6.5-12.4-.2-1.3-.7-3-1-3.9-1.3-3.1-1.3-17.5 0-22.9 1.8-8 6.1-15.7 11.9-21.6 4.7-4.7 12.3-10.3 14.9-10.9.6-.1 1.8-.5 2.6-.8 5-2 13.7-3.4 20.1-3.2 8.5.3 16.7 1.4 18.9 2.5.8.4 2 .8 2.5.9 2.4.3 8.5 2.6 14.7 5.7 3.7 1.9 6.9 3 7.1 2.6.2-.4.4-5 .4-10.4.1-9.9 0-10.1-4.2-10.7-.3 0-1.8-.7-3.3-1.5-3.8-1.9-13.1-4.5-23.7-6.5-4.8-.9-21.9-1.2-26-.4zM2336.7 2289.7c-.2.2-3.1 1-6.3 1.8-8.3 2.2-19.6 7.8-24 12-.7.6-2.5 2.2-4.1 3.6-3.8 3.2-10.9 12.3-13.6 17.3-10.8 20.7-9.5 46.7 3.4 66.6 4.2 6.5 15.5 18 17.6 18 .7 0 1.3.4 1.3.9 0 1 9.8 5.5 17.2 7.9 4.2 1.3 9 1.7 22.8 1.7 9.6-.1 19.5-.6 22-1.2s5.4-1.4 6.5-1.6c3.4-.8 12.9-4.7 15.3-6.3 2-1.3 2.2-2.2 2.2-11.4 0-10.7-.3-11.3-4.8-8.1-3.3 2.2-14.2 7-18.7 8.1-.5.1-2 .6-3.2 1.1-7.2 2.7-26.1 3-34.9.4-25.7-7.4-39.7-33.4-32-59.7 2-7.1 8.1-16.4 14.1-21.5 5.1-4.4 13.9-9.2 18.4-9.9 1.4-.3 4.3-.9 6.4-1.4 11-2.4 31.6 1.4 45.7 8.5 3.9 1.9 7.1 3.2 7.1 2.8.1-.5.2-5.1.3-10.3l.1-9.5-3-1.3c-1.6-.8-3.4-1.5-4-1.6-.5-.2-1.7-.6-2.5-.9-3-1.1-9.5-3.2-11-3.4-.8-.1-4.4-.9-7.9-1.7-5.5-1.2-29.4-2-30.4-.9zM754.8 2291.1c-.8.5-1.1 52.2-.8 122.1v5.8h19l.1-2.8c0-1.5.2-13.9.2-27.7l.2-24.9 34.8-.1c22.4 0 34.8.4 34.8 1 .1.5.3 12.9.3 27.5l.2 26.5 9.7.3 9.7.3v-128.6h-9.5c-5.6 0-9.5.4-9.6 1 0 .5-.2 12.9-.2 27.5l-.2 26.5h-70v-27.3c0-26.5-.1-27.2-2-27.3-7.8-.4-15.8-.3-16.7.2zM939 2290.8c-.7.3-1 22.6-1 64.3v64l9.7-.3 9.7-.3v-63.8c.1-35-.1-63.7-.4-63.8-2.1-.2-17.2-.3-18-.1zM1033.8 2291.1c-.8.5-1.5 103-.9 125.6.1 2.2.4 2.3 9.6 2.3 8.4 0 9.5-.2 9.6-1.8 0-.9 0-13.4.1-27.7v-26l5.1.2c7.9.3 10.8 1.1 15.2 4.5 5.9 4.6 18.8 20.7 21.3 26.8.3.8 1 1.9 1.4 2.5.4.5 3.8 5.6 7.5 11.2l6.7 10.3h22.8l-1.7-2.8c-1-1.5-2.5-3.6-3.5-4.7-1.7-2-11-16.2-14.5-22.3-1.1-1.7-2.3-3.2-2.7-3.2-.4 0-.8-.5-.8-1.1 0-2.1-11.2-16.8-16.6-21.9l-5.3-5 3.8-1.9c5.5-2.8 11-8.8 13.8-15.1 2.1-4.5 2.6-7 2.5-14 0-9.7 0-9.9-2.9-16-4.9-10.3-14.8-17-29.3-19.7-3.9-.7-40.1-.9-41.2-.2zm35.2 16.9c0 .3 1.6.6 3.6.7 4.8.2 10.9 4.4 13.1 9 3.2 6.7 2.3 16-1.9 20.7-1 1.1-1.8 2.3-1.8 2.6 0 2.9-18.5 6.3-28.6 5.1-.8-.1-1.2-5.6-1.2-18.9 0-10.3.2-19 .4-19.3.4-.8 16.4-.6 16.4.1zM1383.7 2290.8c-1.8.4-1.9 1.3-1.8 11.2.1 3 .1 8.4 0 12-.1 3.6-.1 7.2-.1 8 .1.8.1 18.8 0 40 0 21.2 0 39.2.1 40 0 .8.1 5 0 9.2v7.7l8.7.3c5.4.2 9.2-.1 9.8-.8.8-.7 1.1-9.9 1.1-27.8l-.1-26.7 4.1.1c2.2 0 4.9 0 6 .1h3c4.1.1 17.1-1.2 21.1-2.1 13-2.9 22.4-11.4 25.9-23.4 5.4-18.4-2-36.5-17.8-43.5-6.1-2.8-7.7-3.2-13.2-3.8-5.6-.6-44.2-1-46.8-.5zm46.3 18.5c6.3 1.7 11.4 6.5 12.6 12 2.6 11.8-2.7 21.5-13.1 24.2-5 1.3-27.5 1.4-27.6.1-.1-.6-.2-9.3-.3-19.4l-.1-18.3 12.5.2c6.9.1 14.1.6 16 1.2zM1528 2290.8c-1.3.2-1.5 7.9-1.5 63.5 0 34.7.3 63.6.7 64.2.3.6 4.3.9 9.6.7l9-.3v-26.8c-.1-14.8.2-27.2.5-27.7.4-.8 8.2-1.1 8.2-.4 0 .1 1.5.3 3.3.5 6.2.6 16.1 9.4 23.6 21 2.1 3.3 4.6 7.1 5.5 8.5.9 1.4 3.2 5.1 5.1 8.2 1.9 3.2 3.8 5.8 4.2 5.8.4 0 .8.5.8 1.2 0 .6 1.1 2.6 2.5 4.4 1.4 1.8 2.5 3.7 2.5 4.3 0 .7 4.2 1.1 12.1 1.1h12.1l-3.2-4.3c-1.8-2.3-4.8-6.7-6.8-9.7-2.1-3-4-5.7-4.4-5.8-.5-.2-.8-.8-.8-1.3 0-.9-10.7-18.1-12.7-20.4-.5-.6-2.3-3-4-5.5-1.7-2.5-5.4-6.7-8.2-9.2-2.8-2.6-5.1-4.9-5.1-5.1 0-.3 1.2-.8 2.7-1.2 1.4-.3 5.1-3.2 8.2-6.3 4.3-4.4 6-7.1 7.5-11.7 2.1-6.7 2.4-16 .6-22.5-2.4-8.8-11.4-18.5-20-21.5-.3-.1-1.3-.5-2.2-.9-.9-.4-2.2-.9-3-1-.7-.2-2.9-.6-4.8-1-3.5-.7-39.1-1.4-42-.8zm40.1 18.2c8.3 2.1 13 8.6 13 17.5 0 3-.7 7-1.6 9-2 4.1-6.9 8.5-9.4 8.5-1 0-2.1.3-2.4.7-.8.8-5.4 1.3-14.7 1.6-6.4.2-7 .1-7.1-1.8v-34.7l.1-2.7 8.8.4c4.8.1 10.8.8 13.3 1.5zM1725.7 2293.2c-.9 1.8-1.7 4-1.9 4.8-.2.8-1.3 3.4-2.5 5.9-1.3 2.4-2.3 4.8-2.3 5.2 0 .5-1.1 3.2-2.4 6.1-1.4 2.9-3.9 8.7-5.6 12.8-1.7 4.1-3.8 8.8-4.5 10.5-5.4 12.1-12.5 29.4-12.5 30.3 0 .7-.4 1.2-1 1.2-.5 0-.9.3-.8.7 0 .5-.3 1.7-.7 2.8-.5 1.1-4.8 11.4-9.7 22.9-4.8 11.5-8.8 21.3-8.8 21.8s4.3.7 9.7.6l9.6-.3 3.4-8c1.8-4.4 4.1-9.6 4.9-11.5.8-1.9 1.9-4.4 2.3-5.5.5-1.1 1.8-4.3 3-7.1l2.3-5h26.5l26.6.1 3.1 6.5c1.7 3.6 4.3 9.3 5.9 12.8 1.5 3.4 3.9 8.9 5.4 12.2l2.7 6h9.8c5.4 0 9.8-.2 9.8-.4 0-.5-4.4-10.3-8.3-18.6-1.1-2.5-2.1-4.7-2.2-5-.4-1.2-2.6-6.3-6.4-14.4-2.3-4.9-4.1-9-4.1-9.2 0-.3-1.6-4-3.6-8.2-2-4.2-3.7-8.2-3.9-8.7-.1-.6-2.1-5-4.3-9.8-2.3-4.9-4.2-9.1-4.2-9.3 0-.2-1.3-3.2-2.9-6.6-1.6-3.5-4.4-9.7-6.1-13.8-1.8-4.1-4.6-10.4-6.2-14-1.7-3.6-3.4-7.5-3.9-8.8-.8-2-1.5-2.2-7.8-2.2-6.8 0-6.9 0-8.4 3.2zm10.3 31c.7 1.8 2.5 6 4 9.3 1.5 3.3 3.5 7.6 4.3 9.5.9 1.9 3.2 7 5.1 11.4 4 8.7 4.3 10.1 2.1 9.2-.8-.3-1.5-.2-1.5.2 0 .5-2.5.5-5.6.2-3-.3-5.7-.3-5.9 0-.2.4-2.7.4-5.5 0-2.7-.4-5-.4-5-.1 0 .8-9.6.5-10.9-.3-1-.7-.5-2.7 2.4-9.1.8-1.6 2.5-5.9 4-9.5 2.8-7 3.3-8.1 6.3-15 1.1-2.5 2.3-5.5 2.6-6.8 1-3.1 2.1-2.8 3.6 1zM2021.1 2291c-.8.6-.9 15.5-.1 16.4.3.3 4.6.5 9.5.5 5 0 10.1.1 11.5.1 1.4.1 6.8.2 12 .3 10.8.2 10-.5 10 10.2v7c.1 1.1.1 2.7.1 3.5-.3 12.2-.2 21 .2 21.7.3.5.2 1.5-.3 2.2-.4.8-.4 2.7 0 4.2.5 1.6.5 3.1 0 3.4-.4.3-.4 2.1 0 4.1.5 1.9.5 4.8 0 6.3-.4 1.6-.4 3.4 0 4.1.5.7.6 1.9.3 2.7-.9 2.2-.9 17.3 0 17.3.5 0 .5.4.2 1-.6 1-.8 5.7-.6 17.3l.1 5.8 9.7-.3 9.7-.3V2308h44.4l-.2-8.7-.1-8.6-52.8-.1c-29.1-.1-53.2.1-53.6.4zM2192.7 2291.2c-1.1.7-1.6 9.8-.5 9.8.4 0 .5.6.3 1.2-.9 2.5-1.1 9.9-.3 10.4.5.3.5 1 .2 1.6-1 1.6-1.1 6.9-.1 7.5.4.2.4.9.1 1.5-1 1.5-.9 28.2 0 29.6.4.7.4 1.2-.1 1.2-.4 0-.8 3.6-.8 8s.3 8 .7 8c.4 0 .4.8.1 1.7-.4.9-.6 6.4-.6 12.3s.2 11.4.6 12.3c.3.9.3 1.7-.1 1.7-.9 0-.8 9.3.1 10.7.4.7.4 1.4 0 1.6-.7.4-.8 3.6-.4 8 .1.4 4.4.6 9.7.5l9.7-.3-.1-63c0-34.7-.1-63.5-.1-64-.1-1.1-16.6-1.4-18.4-.3z"/></svg>