<?xml version="1.0" encoding="utf-8"?>
<svg viewBox="122.57919311523438 276.6453857421875 516.542236328125 87.82931518554688" width="516.542236328125" height="87.82931518554688" xmlns="http://www.w3.org/2000/svg">
  <path id="path18" style="fill: rgb(255, 135, 0); fill-opacity: 1; fill-rule: nonzero; stroke: rgb(55, 52, 53);" d="m 3375.21,2505.16 c 15.7,-69.57 23.97,-141.73 23.97,-215.73 0,-81.14 -9.97,-160.07 -28.75,-235.8 h -55.03 c 19.89,75.52 30.45,154.5 30.45,235.8 0,74.13 -8.8,146.32 -25.41,215.73 z M 1246.08,2053.63 c -18.77,75.73 -28.75,154.66 -28.75,235.8 0,74 8.27,146.16 23.97,215.73 h 54.77 c -16.61,-69.39 -25.41,-141.6 -25.41,-215.73 0,-81.3 10.56,-160.28 30.46,-235.8 h -55.04" transform="matrix(0.13333332737286874, 0, 0, -0.13333332737286874, 0, 610.6666870117188)"/>
  <path id="path20" style="fill: rgb(255, 255, 255); fill-opacity: 1; fill-rule: evenodd; stroke: rgb(55, 52, 53);" d="m 919.344,2499.32 h 46.851 V 2120.03 H 1139.47 V 2076 H 919.344 v 423.32" transform="matrix(0.13333332737286874, 0, 0, -0.13333332737286874, 0, 610.6666870117188)"/>
  <path id="path22" style="fill: rgb(255, 255, 255); fill-opacity: 1; fill-rule: evenodd; stroke: rgb(55, 52, 53);" d="m 1467.93,2499.32 h 200.93 v -44.03 h -154.07 v -135.46 h 138.28 v -44.02 H 1514.79 V 2076 h -46.86 v 423.32" transform="matrix(0.13333332737286874, 0, 0, -0.13333332737286874, 0, 610.6666870117188)"/>
  <path id="path24" style="fill: rgb(255, 255, 255); fill-opacity: 1; fill-rule: evenodd; stroke: rgb(55, 52, 53);" d="m 1790.77,2499.32 h 196.98 v -44.03 h -150.12 v -135.46 h 134.31 v -44.02 h -134.31 v -155.78 h 155.19 V 2076 h -202.05 v 423.32" transform="matrix(0.13333332737286874, 0, 0, -0.13333332737286874, 0, 610.6666870117188)"/>
  <path id="path26" style="fill: rgb(255, 255, 255); fill-opacity: 1; fill-rule: evenodd; stroke: rgb(55, 52, 53);" d="M 2316.8,2247.57 V 2076 h -46.85 v 423.32 h 82.77 c 23.63,0 45.07,-2.27 64.16,-6.77 19.2,-4.54 35.38,-11.76 48.74,-21.74 13.36,-9.97 23.52,-22.69 30.67,-38.1 7.14,-15.44 10.72,-34.05 10.72,-55.89 0,-31.23 -6.96,-55.87 -20.8,-73.92 -13.92,-18.08 -31.23,-31.22 -51.84,-39.52 14.69,-10.9 27.28,-24.26 38.03,-40.08 10.71,-15.78 20.5,-32.45 29.51,-49.94 9.04,-17.49 17.89,-34.8 26.54,-51.92 8.66,-17.12 18.23,-32.26 28.8,-45.44 h -54.19 c -7.55,9.42 -14.51,20.22 -20.8,32.46 -6.4,12.24 -12.8,24.74 -19.2,37.54 -6.4,12.77 -13.06,25.3 -20.21,37.52 -7.14,12.24 -14.85,23.04 -23.04,32.45 -8.29,9.41 -17.7,17.04 -28.13,22.85 -10.53,5.84 -22.4,8.75 -35.47,8.75 z m 0,207.72 v -163.7 h 46.86 c 13.54,0 26.04,1.34 37.51,3.98 11.49,2.61 21.26,7.14 29.36,13.44 8.08,6.4 14.48,15.14 19.17,26.16 4.72,11.09 7.07,24.82 7.07,41.38 0,28.13 -9.04,48.27 -27.09,60.48 -18.05,12.13 -43.66,18.26 -76.77,18.26 h -36.11" transform="matrix(0.13333332737286874, 0, 0, -0.13333332737286874, 0, 610.6666870117188)"/>
  <path id="path28" style="fill: rgb(255, 255, 255); fill-opacity: 1; fill-rule: evenodd; stroke: rgb(55, 52, 53);" d="m 2671.24,2499.32 h 196.98 v -44.03 h -150.13 v -135.46 h 134.31 v -44.02 h -134.31 v -155.78 h 155.2 V 2076 h -202.05 v 423.32" transform="matrix(0.13333332737286874, 0, 0, -0.13333332737286874, 0, 610.6666870117188)"/>
  <path id="path30" style="fill: rgb(255, 255, 255); fill-opacity: 1; fill-rule: evenodd; stroke: rgb(55, 52, 53);" d="m 2999.73,2499.32 h 200.93 v -44.03 h -154.08 v -135.46 h 138.29 v -44.02 H 3046.58 V 2076 h -46.85 v 423.32" transform="matrix(0.13333332737286874, 0, 0, -0.13333332737286874, 0, 610.6666870117188)"/>
  <path id="path32" style="fill: rgb(255, 255, 255); fill-opacity: 1; fill-rule: evenodd; stroke: rgb(55, 52, 53);" d="M 3593.49,2424.23 V 2076 h -46.85 v 423.88 h 46.85 l 282.76,-348.81 v 348.81 h 47.41 V 2076 h -47.41 l -282.76,348.23" transform="matrix(0.13333332737286874, 0, 0, -0.13333332737286874, 0, 610.6666870117188)"/>
  <path id="path34" style="fill: rgb(255, 255, 255); fill-opacity: 1; fill-rule: evenodd; stroke: rgb(55, 52, 53);" d="m 4100.32,2499.32 h 196.98 v -44.03 h -150.13 v -135.46 h 134.31 v -44.02 h -134.31 v -155.78 h 155.19 V 2076 h -202.04 v 423.32" transform="matrix(0.13333332737286874, 0, 0, -0.13333332737286874, 0, 610.6666870117188)"/>
  <path id="path36" style="fill: rgb(255, 255, 255); fill-opacity: 1; fill-rule: evenodd; stroke: rgb(55, 52, 53);" d="m 4428.81,2499.32 h 147.49 c 30.96,0 59.54,-5.28 85.99,-15.81 26.32,-10.54 49.28,-25.23 68.67,-44.03 19.38,-18.82 34.72,-41.01 45.81,-66.61 11.09,-25.57 16.64,-53.6 16.64,-84.08 0,-30.47 -5.81,-58.71 -17.49,-84.66 -11.65,-25.97 -27.95,-48.45 -48.64,-67.46 -20.69,-18.99 -45.23,-33.87 -73.46,-44.59 -28.32,-10.72 -58.8,-16.08 -91.62,-16.08 h -133.39 z m 314.39,-210.53 c 0,23.98 -4.24,46.19 -12.72,66.69 -8.45,20.4 -20.13,38 -34.99,52.86 -14.85,14.77 -32.56,26.34 -53.06,34.53 -20.51,8.26 -42.61,12.42 -66.32,12.42 h -100.45 v -335.26 h 86.35 c 25.97,0 50.05,4.24 72.23,12.69 22.21,8.37 41.31,20.24 57.31,35.39 16,15.23 28.58,33.01 37.81,53.41 9.23,20.5 13.84,42.9 13.84,67.27" transform="matrix(0.13333332737286874, 0, 0, -0.13333332737286874, 0, 610.6666870117188)"/>
  <path id="path38" style="fill: rgb(255, 255, 255); fill-opacity: 1; fill-rule: evenodd; stroke: rgb(55, 52, 53);" d="m 1559.64,1875.47 v -18.71 c -12.51,-6.88 -26.96,-10.32 -43.37,-10.32 -13.29,0 -24.6,2.69 -33.86,8.05 -9.27,5.36 -16.62,12.73 -22.04,22.15 -5.39,9.41 -8.1,19.58 -8.1,30.54 0,17.4 6.18,32.03 18.57,43.89 12.38,11.86 27.65,17.78 45.81,17.78 12.53,0 26.46,-3.26 41.76,-9.79 v -18.36 c -13.96,7.92 -27.6,11.89 -40.91,11.89 -13.67,0 -25.01,-4.32 -34.05,-12.97 -9,-8.63 -13.52,-19.44 -13.52,-32.44 0,-13.12 4.43,-23.9 13.32,-32.35 8.86,-8.42 20.23,-12.65 34.04,-12.65 14.46,0 28.59,4.43 42.35,13.29 z m 149.9,91.63 h 17.14 v -119.26 h -17.14 v 51.94 h -66.97 v -51.94 h -17.14 v 119.26 h 17.14 v -51.58 h 66.97 z m 88.35,0 h 17.14 v -119.26 h -17.14 z m 88.87,-119.26 v 119.26 h 29.87 c 12.1,0 21.66,-2.97 28.74,-8.95 7.08,-5.97 10.64,-14.04 10.64,-24.24 0,-6.94 -1.75,-12.95 -5.22,-17.98 -3.47,-5.07 -8.42,-8.87 -14.92,-11.37 3.82,-2.51 7.55,-5.92 11.19,-10.26 3.64,-4.32 8.77,-11.86 15.39,-22.62 4.14,-6.79 7.46,-11.89 9.97,-15.3 l 6.32,-8.54 h -20.31 l -5.22,7.87 c -0.17,0.29 -0.5,0.76 -1.02,1.46 l -3.32,4.69 -5.28,8.72 -5.71,9.32 c -3.53,4.9 -6.76,8.8 -9.7,11.69 -2.92,2.91 -5.57,4.98 -7.93,6.27 -2.36,1.28 -6.33,1.92 -11.92,1.92 h -4.43 v -51.94 z m 22.27,104.75 h -5.13 v -37.6 h 6.47 c 8.65,0 14.57,0.73 17.77,2.22 3.24,1.48 5.72,3.7 7.52,6.7 1.78,2.97 2.69,6.38 2.69,10.17 0,3.76 -0.99,7.17 -2.97,10.2 -2.02,3.03 -4.81,5.19 -8.43,6.44 -3.58,1.26 -9.59,1.87 -17.92,1.87 z m 175.69,16.26 c 18.42,0 33.75,-5.83 45.99,-17.51 12.27,-11.66 18.39,-26.32 18.39,-43.89 0,-17.61 -6.18,-32.18 -18.53,-43.69 -12.39,-11.55 -27.98,-17.32 -46.78,-17.32 -17.98,0 -32.93,5.77 -44.91,17.32 -11.98,11.51 -17.95,25.96 -17.95,43.33 0,17.84 6.03,32.59 18.07,44.25 12.06,11.68 27.3,17.51 45.72,17.51 z m 0.64,-16.26 c -13.63,0 -24.82,-4.26 -33.6,-12.8 -8.77,-8.54 -13.17,-19.44 -13.17,-32.7 0,-12.88 4.4,-23.57 13.2,-32.11 8.8,-8.54 19.82,-12.8 33.05,-12.8 13.29,0 24.39,4.34 33.28,13.06 8.89,8.71 13.32,19.55 13.32,32.53 0,12.64 -4.43,23.25 -13.32,31.88 -8.89,8.62 -19.82,12.94 -32.76,12.94 z m 128.69,-104.75 v 119.26 h 37.8 c 11.39,0 20.46,-3.06 27.25,-9.21 6.76,-6.15 10.14,-14.39 10.14,-24.74 0,-6.97 -1.75,-13.09 -5.22,-18.45 -3.47,-5.33 -8.22,-9.24 -14.25,-11.66 -6.03,-2.41 -14.68,-3.61 -25.94,-3.61 h -12.64 v -51.59 z m 34.83,104.05 h -17.69 v -37.25 h 18.7 c 6.94,0 12.31,1.63 16.07,4.9 3.75,3.26 5.62,7.95 5.62,14.01 0,12.22 -7.58,18.34 -22.7,18.34 z m 100.53,-104.05 v 119.26 h 29.87 c 12.1,0 21.65,-2.97 28.74,-8.95 7.08,-5.97 10.64,-14.04 10.64,-24.24 0,-6.94 -1.75,-12.95 -5.22,-17.98 -3.47,-5.07 -8.42,-8.87 -14.92,-11.37 3.81,-2.51 7.54,-5.92 11.19,-10.26 3.64,-4.32 8.77,-11.86 15.38,-22.62 4.14,-6.79 7.46,-11.89 9.97,-15.3 l 6.33,-8.54 h -20.32 l -5.21,7.87 c -0.18,0.29 -0.5,0.76 -1.02,1.46 l -3.32,4.69 -5.28,8.72 -5.72,9.32 c -3.52,4.9 -6.75,8.8 -9.7,11.69 -2.91,2.91 -5.57,4.98 -7.93,6.27 -2.36,1.28 -6.32,1.92 -11.92,1.92 h -4.43 v -51.94 z m 22.26,104.75 h -5.13 v -37.6 h 6.48 c 8.65,0 14.57,0.73 17.77,2.22 3.24,1.48 5.71,3.7 7.52,6.7 1.78,2.97 2.68,6.38 2.68,10.17 0,3.76 -0.99,7.17 -2.97,10.2 -2.01,3.03 -4.81,5.19 -8.42,6.44 -3.59,1.26 -9.59,1.87 -17.93,1.87 z m 165.7,15.21 h 12.01 l 53.45,-119.96 h -17.49 l -15.85,35.32 h -50.86 l -14.89,-35.32 h -17.54 z m 25.3,-69.42 -19.38,43.22 -18.04,-43.22 z m 193.91,-22.91 v -18.71 c -12.51,-6.88 -26.96,-10.32 -43.37,-10.32 -13.29,0 -24.6,2.69 -33.86,8.05 -9.27,5.36 -16.62,12.73 -22.04,22.15 -5.39,9.41 -8.1,19.58 -8.1,30.54 0,17.4 6.18,32.03 18.56,43.89 12.39,11.86 27.66,17.78 45.82,17.78 12.54,0 26.46,-3.26 41.77,-9.79 v -18.36 c -13.97,7.92 -27.61,11.89 -40.92,11.89 -13.67,0 -25.01,-4.32 -34.05,-12.97 -9,-8.63 -13.52,-19.44 -13.52,-32.44 0,-13.12 4.43,-23.9 13.32,-32.35 8.86,-8.42 20.22,-12.65 34.04,-12.65 14.46,0 28.59,4.43 42.35,13.29 z m 55.65,91.63 h 99.67 v -15.21 h -41.62 v -104.05 h -17.13 v 104.05 h -40.92 z m 160.74,0 h 17.14 v -119.26 h -17.14 z m 191.17,-91.63 v -18.71 c -12.5,-6.88 -26.96,-10.32 -43.37,-10.32 -13.29,0 -24.59,2.69 -33.86,8.05 -9.27,5.36 -16.62,12.73 -22.03,22.15 -5.4,9.41 -8.11,19.58 -8.11,30.54 0,17.4 6.18,32.03 18.57,43.89 12.39,11.86 27.66,17.78 45.81,17.78 12.54,0 26.46,-3.26 41.77,-9.79 v -18.36 c -13.96,7.92 -27.6,11.89 -40.92,11.89 -13.67,0 -25.01,-4.32 -34.04,-12.97 -9.01,-8.63 -13.53,-19.44 -13.53,-32.44 0,-13.12 4.43,-23.9 13.32,-32.35 8.86,-8.42 20.23,-12.65 34.04,-12.65 14.46,0 28.59,4.43 42.35,13.29" transform="matrix(0.13333332737286874, 0, 0, -0.13333332737286874, 0, 610.6666870117188)"/>
</svg>